<svg version="1" xmlns="http://www.w3.org/2000/svg" width="933.333" height="933.333" viewBox="0 0 700.000000 700.000000"><path d="M0 350v350h700V0H0v350zm217-2.5V434h-39V261h39v86.5zm370.2-39.3l.3 47.3 23.1-22.8 23.2-22.7 22.1.2 22.2.3-26.8 25.2c-14.7 13.8-28.1 26.5-29.7 28.2l-2.9 3 29.4 30.3c16.2 16.7 30.7 31.8 32.3 33.6l3 3.2h-47.1l-15.1-16.3c-8.2-8.9-19.3-20.7-24.6-26.2l-9.5-10-.1 26.2V434h-39V261h39l.2 47.2zM120 308c3.6.6 10 2 14.3 3.2l7.7 2v31.6l-7.4-3.8c-9.6-4.8-17.2-6.4-28.3-5.8-14.5.7-23.5 6.3-28.9 18-2.7 5.9-2.9 7.1-2.9 18.8 0 10.8.3 13.2 2.2 17.3 5.5 11.8 14.8 18.3 27.9 19.4 11.4.9 25.6-2.4 33.6-7.9 1.4-1 2.9-1.8 3.2-1.8.3 0 .6 7 .6 15.5V430l-2.7 1.1c-12.6 4.8-35.7 6.9-51.1 4.5-26.8-4.1-44.2-17.6-51.8-40.1-3.6-10.6-4.4-28.2-2-39.9 5.3-25.6 24.3-42.8 52.4-47.6 7-1.1 25.8-1.1 33.2 0zm216.7.6c10.8 2.2 18.8 5.6 26.3 11.3 15.2 11.5 22.9 28.8 23 51.4 0 5.4-.7 13.3-1.5 17.5-4.6 23-21.3 40-45 45.9-9.8 2.4-33.3 2.3-43-.1-24.1-6.2-40.2-22.5-44.9-45.8-.9-4.2-1.6-11.7-1.6-16.7 0-34.2 17.5-56.8 49-63.6 9-1.9 28.3-1.9 37.7.1zm156.4 0c4.6.8 10.8 2.2 13.7 3.1l5.2 1.7v31.4l-6.3-3.4c-8.4-4.4-16.4-6.4-26.2-6.4-15.5 0-25.4 5.4-31.4 17.2-3 5.9-3.5 7.8-3.9 16.6-.9 18.7 5.1 30.5 18.8 37.1 4.9 2.3 6.6 2.6 16.5 2.6 12.1 0 17.9-1.5 27.3-6.7l5.2-2.9V430l-2.7 1.1c-11.5 4.4-34.1 6.8-47.8 5-18.8-2.5-30.3-7.7-41.1-18.5-11.2-11.2-15.9-22.3-17.1-40.8-2.3-35.4 16.2-60.8 49.4-67.8 11.1-2.4 29.1-2.6 40.4-.4z"/><path d="M306 337.7c-3.9 2-6.4 4.2-8.7 7.6-4.9 7.3-5.8 11.5-5.8 27.2.1 12.1.4 14.8 2.3 19.7 5.4 13.5 19.5 20 33.3 15.3 12-4.2 17.9-16.1 17.9-36.1 0-12.1-2.4-21.1-7.3-27.5-4.5-6-9.6-8.3-18.7-8.7-6.6-.3-8.1 0-13 2.5z"/></svg>